<?xml version="1.0" standalone="no"?>
<!DOCTYPE svg PUBLIC "-//W3C//DTD SVG 20010904//EN"
 "http://www.w3.org/TR/2001/REC-SVG-20010904/DTD/svg10.dtd">
<svg version="1.0" xmlns="http://www.w3.org/2000/svg"
 width="300.000000pt" height="225.000000pt" viewBox="0 0 300.000000 225.000000"
 preserveAspectRatio="xMidYMid meet">
<metadata>
Created by potrace 1.10, written by Peter Selinger 2001-2011
</metadata>
<g transform="translate(0.000000,225.000000) scale(0.100000,-0.100000)"
fill="#000000" stroke="none">
<path d="M1972 2080 c-27 -22 -53 -47 -56 -56 -4 -11 12 -44 46 -93 29 -42 74
-109 101 -148 l48 -73 27 17 c15 9 46 32 69 50 24 19 40 28 37 19 -4 -11 0
-13 17 -9 15 4 18 8 10 11 -10 3 -8 9 9 22 18 14 20 21 12 36 -11 20 -255 264
-264 264 -3 0 -28 -18 -56 -40z m167 -107 l122 -127 -21 -20 -21 -21 -57 60
c-31 33 -83 89 -115 124 -32 35 -60 61 -63 58 -5 -4 107 -139 173 -209 28 -28
33 -40 25 -53 -8 -16 -16 -10 -56 41 -26 32 -72 96 -103 141 -55 81 -56 82
-39 108 9 14 20 25 25 25 5 0 64 -57 130 -127z m-164 24 c14 -24 25 -52 25
-63 1 -25 26 -58 35 -45 3 6 3 16 -1 23 -4 7 -3 8 5 4 7 -4 10 -13 8 -19 -2
-7 16 -38 40 -70 45 -62 45 -63 35 -88 -5 -12 -33 22 -104 128 -53 80 -91 142
-84 140 10 -4 12 1 9 14 -9 32 5 22 32 -24z"/>
<path d="M2590 2099 c0 -13 -127 -323 -164 -399 -14 -30 -26 -55 -26 -57 0 -2
10 -3 23 -3 23 0 109 -38 141 -62 17 -14 17 -16 2 -46 -9 -18 -20 -32 -23 -32
-5 0 -144 66 -162 78 -3 1 1 8 7 14 7 7 12 19 12 27 -1 9 -8 3 -17 -13 -13
-24 -13 -33 -3 -49 13 -21 11 -23 -40 -52 -45 -24 -92 -83 -110 -135 l-17 -52
-63 111 c-81 144 -98 165 -54 66 20 -44 43 -88 51 -97 27 -30 153 -252 153
-270 0 -9 5 -20 10 -23 6 -3 35 -49 66 -101 31 -53 58 -93 60 -91 2 2 -19 46
-47 97 -60 108 -77 155 -53 146 48 -19 93 -17 143 4 28 13 54 20 57 18 2 -3 0
-25 -5 -49 -19 -83 -10 -128 29 -141 6 -2 -22 -77 -63 -169 l-73 -165 22 -17
c13 -9 27 -17 32 -17 10 0 88 140 84 152 -1 5 16 45 38 88 36 69 40 81 28 99
-18 30 -32 26 -52 -15 -23 -49 -13 -56 13 -7 31 59 25 32 -10 -44 -87 -189
-100 -214 -109 -208 -5 3 -7 0 -4 -8 3 -8 -1 -14 -9 -14 -12 0 -13 6 -5 29 6
15 14 25 19 22 5 -3 6 3 2 12 -4 12 -3 15 5 10 8 -5 10 -2 6 9 -4 10 -2 15 6
13 7 -2 15 4 17 12 4 13 3 13 -6 0 -12 -17 -15 -1 -5 25 6 13 9 14 16 3 8 -10
9 -9 4 4 -8 27 68 201 96 217 35 20 69 85 74 139 2 26 17 73 34 105 25 48 130
376 130 407 0 5 -6 10 -13 10 -8 0 -34 -70 -71 -192 -31 -106 -66 -211 -77
-235 -11 -24 -22 -57 -26 -73 -3 -17 -8 -30 -12 -29 -16 2 -75 28 -64 28 12 1
43 82 43 113 0 10 8 18 18 19 9 1 -1 7 -23 14 -42 14 -40 17 10 17 l30 -1 -30
8 c-19 5 -29 12 -26 22 2 8 4 24 4 36 -1 13 2 21 6 18 9 -5 53 90 82 179 13
38 24 65 26 59 2 -5 -17 -68 -42 -140 -46 -134 -52 -154 -36 -137 8 8 101 292
101 308 0 3 -11 6 -25 6 -14 0 -25 -6 -25 -13 0 -8 -9 -22 -19 -31 -11 -10
-23 -32 -27 -50 -4 -17 -20 -67 -37 -110 l-30 -79 -19 22 c-23 30 -23 44 2 66
11 10 20 22 20 27 0 15 152 291 200 363 25 39 50 75 54 82 5 9 -31 32 -113 73
-125 62 -141 68 -141 49z m131 -70 c54 -28 99 -54 99 -58 0 -4 -16 -22 -35
-41 -19 -19 -35 -38 -35 -42 0 -5 -18 -38 -40 -74 -21 -35 -35 -62 -30 -59 6
4 10 4 10 0 0 -5 -88 -164 -95 -173 -2 -2 -20 7 -42 21 -21 13 -59 32 -85 41
l-47 18 17 35 c13 28 17 31 23 16 5 -14 9 -9 18 19 7 21 9 43 5 49 -4 7 -3 9
3 6 6 -4 30 55 59 143 31 96 53 150 62 150 8 0 58 -23 113 -51z m-221 -561
c94 -49 108 -170 28 -245 -35 -33 -150 -70 -133 -44 3 5 -4 12 -15 16 -11 3
-34 18 -50 32 -25 20 -29 22 -24 6 4 -12 -2 -10 -20 10 -14 15 -26 37 -26 48
0 11 -4 17 -10 14 -6 -4 -10 10 -10 34 0 23 5 41 11 41 5 0 8 4 5 9 -9 14 39
66 76 84 47 24 116 21 168 -5z m156 -322 c20 -1 21 -2 3 -40 -9 -21 -25 -46
-35 -55 -26 -24 -72 -42 -79 -31 -3 5 2 39 11 75 l17 67 31 -7 c17 -4 40 -8
52 -9z"/>
<path d="M1055 2064 c-33 -14 -48 -22 -34 -19 30 5 120 44 104 44 -5 0 -37
-12 -70 -25z"/>
<path d="M930 2071 c-8 -5 -64 -26 -125 -46 -60 -21 -116 -43 -123 -50 -11 -9
-9 -22 8 -66 11 -31 27 -64 35 -75 13 -16 13 -13 -1 20 -20 50 -12 57 11 9 10
-21 23 -41 29 -45 16 -11 56 -10 56 1 0 5 40 24 90 41 49 18 95 39 101 46 6 8
21 14 33 14 32 0 89 38 82 55 -4 10 1 15 15 15 15 0 19 5 15 16 -3 9 -6 22 -6
30 0 19 -26 18 -86 -3 -32 -11 -43 -18 -30 -21 10 -2 36 4 57 14 22 9 42 14
46 11 10 -10 -17 -37 -52 -51 -72 -30 -69 -31 -98 34 -28 62 -32 65 -57 51z
m34 -38 c4 -9 3 -19 -1 -23 -11 -9 -245 -90 -260 -90 -7 0 -13 8 -13 18 0 15
27 29 123 64 142 53 143 53 151 31z m10 -68 c4 -14 13 -25 21 -25 19 0 19 -16
0 -24 -8 -3 -15 -1 -15 4 0 5 -7 7 -16 3 -11 -4 -12 -8 -4 -13 8 -5 0 -11 -19
-18 -19 -7 -31 -7 -31 -1 0 5 5 9 12 9 6 0 9 3 6 6 -4 3 -16 0 -28 -6 -16 -9
-19 -14 -10 -20 8 -5 -4 -14 -34 -25 -26 -10 -49 -15 -52 -12 -3 3 11 10 31
17 20 7 34 14 32 16 -3 3 -29 -4 -58 -16 -64 -24 -71 -24 -44 -4 20 16 20 16
0 12 -14 -2 -21 3 -23 18 -2 12 3 21 10 21 21 1 180 61 192 73 16 16 23 12 30
-15z"/>
<path d="M1285 2065 c-60 -33 -101 -89 -91 -125 4 -11 9 -30 12 -41 8 -28 -14
-15 -25 14 -7 19 -9 17 -13 -15 -2 -20 0 -34 5 -31 5 3 12 1 16 -5 4 -7 16
-13 26 -15 11 -2 36 -13 55 -25 19 -12 50 -22 69 -22 42 0 106 35 120 67 18
39 13 51 -8 17 -29 -47 -69 -74 -110 -74 -37 0 -101 32 -101 50 0 6 -4 9 -8 6
-4 -2 -8 3 -8 12 0 9 -3 33 -7 53 -10 49 24 99 80 119 39 13 46 12 89 -5 26
-11 56 -32 66 -46 25 -34 34 -100 18 -139 -14 -34 -57 -73 -71 -64 -5 3 -9 1
-9 -4 0 -5 -20 -9 -45 -8 -25 0 -45 4 -45 9 0 4 -6 7 -13 7 -8 0 -21 8 -30 18
-9 10 -30 19 -47 20 l-32 2 27 -22 c31 -27 47 -86 39 -148 l-5 -45 16 28 c9
15 13 36 10 46 -7 22 3 51 17 51 18 0 3 -108 -19 -138 -58 -78 -220 -82 -270
-6 -8 13 -17 52 -20 87 -3 50 0 68 16 95 25 39 76 72 113 72 15 0 30 5 33 10
12 20 -49 10 -91 -15 -63 -37 -88 -84 -86 -163 1 -36 4 -74 8 -84 5 -17 3 -18
-13 -10 -36 21 -89 64 -158 130 -38 37 -95 86 -125 109 -30 23 -102 82 -160
132 -57 50 -106 88 -109 86 -2 -3 -2 -7 0 -8 62 -50 388 -339 424 -376 27 -28
54 -51 60 -51 6 0 30 -16 53 -36 l42 -36 -27 -32 c-16 -17 -35 -42 -43 -55
l-16 -23 -67 41 c-37 22 -67 38 -67 35 0 -3 -43 17 -96 45 -52 28 -99 49 -104
46 -5 -3 -26 1 -46 10 -20 8 -41 12 -46 9 -10 -7 48 -36 95 -48 49 -12 349
-165 435 -221 45 -30 82 -51 82 -47 -1 4 -39 32 -85 62 -47 30 -85 60 -85 67
0 28 24 20 97 -32 43 -30 84 -55 91 -55 22 0 6 15 -78 70 -44 29 -80 58 -80
64 0 6 10 20 21 30 28 24 47 14 141 -75 58 -56 69 -70 60 -82 -7 -8 -26 -39
-42 -68 -16 -30 -30 -49 -30 -42 0 6 -44 42 -97 79 -54 37 -100 71 -101 76 -2
4 -8 5 -13 2 -5 -3 -31 8 -58 25 -26 17 -54 31 -61 31 -7 0 -47 17 -89 38 -42
21 -111 56 -153 76 -43 21 -76 42 -73 46 3 5 -16 16 -43 24 -26 9 -82 35 -123
59 -41 23 -87 48 -102 56 -14 8 -24 19 -20 24 3 6 1 7 -5 3 -7 -4 -12 -9 -12
-11 0 -7 144 -101 214 -140 40 -22 106 -59 147 -82 41 -23 87 -49 102 -57 32
-18 28 -36 -8 -36 -13 0 -27 -4 -30 -10 -4 -6 26 -10 83 -10 l89 0 10 -57 c12
-64 8 -78 -13 -49 -12 18 -18 18 -81 7 -110 -20 -106 -21 -117 28 -7 32 -6 49
3 64 10 16 10 21 -1 28 -10 6 -16 -4 -24 -42 -12 -51 -9 -93 7 -83 5 3 9 -8 9
-25 0 -29 -29 -59 -43 -44 -4 3 -12 1 -19 -4 -7 -6 -57 -14 -110 -18 -90 -6
-100 -5 -138 16 -39 22 -52 39 -29 39 7 0 8 12 4 33 -10 45 -19 51 -35 22 -12
-22 -11 -30 3 -60 13 -27 30 -41 74 -61 65 -29 80 -31 172 -20 41 5 78 16 104
33 22 14 56 32 74 39 l33 14 0 -45 c0 -25 5 -45 10 -45 6 0 10 9 10 20 0 27
27 80 41 80 5 0 27 -9 48 -20 55 -27 143 -60 164 -60 9 0 17 -5 17 -11 0 -5 4
-8 9 -5 16 10 103 -25 97 -40 -3 -8 0 -11 10 -7 18 7 18 -1 -2 -38 -8 -17 -13
-33 -10 -37 3 -3 11 9 17 26 12 36 21 39 39 17 7 -8 19 -15 27 -15 7 0 31 -9
53 -20 24 -12 41 -16 45 -10 4 6 -19 22 -50 35 -31 14 -67 36 -80 49 -14 14
-66 38 -122 57 -54 17 -108 39 -120 46 -12 8 -27 12 -33 8 -6 -4 -10 -3 -9 2
1 4 -1 15 -4 23 -3 8 -7 34 -9 58 -3 34 0 42 13 42 10 0 19 -3 21 -7 2 -5 21
-17 43 -28 33 -16 100 -61 209 -139 22 -15 64 2 104 44 34 33 39 45 38 80 0
26 -6 42 -16 45 -8 3 -40 28 -70 55 l-55 49 55 -1 c47 0 63 5 104 32 58 39 84
79 92 141 l6 47 50 4 c88 9 138 63 145 159 5 59 3 67 -24 101 -53 69 -143 102
-198 73z"/>
<path d="M1285 2028 c-21 -12 -44 -38 -45 -50 0 -3 14 7 30 24 26 26 36 30 74
26 24 -1 42 0 39 5 -7 11 -76 8 -98 -5z"/>
<path d="M1310 1970 c-11 -8 -8 -9 13 -4 20 4 34 1 47 -11 11 -10 20 -13 20
-7 0 13 -32 32 -52 32 -7 0 -20 -5 -28 -10z"/>
<path d="M1862 1968 c-18 -18 -15 -28 8 -28 21 0 25 7 12 27 -6 10 -11 10 -20
1z"/>
<path d="M1897 1908 c-9 -20 -26 -39 -36 -43 -11 -3 -37 -25 -58 -48 -22 -23
-56 -51 -76 -62 -21 -11 -37 -27 -37 -37 0 -10 -10 -20 -24 -24 -25 -6 -50 2
-42 14 6 10 -48 118 -56 112 -4 -3 -13 4 -21 14 -8 11 -17 15 -20 9 -4 -6 14
-36 38 -68 25 -31 45 -61 45 -66 0 -8 -41 -34 -50 -32 -3 1 -30 -15 -60 -36
l-55 -37 -38 41 -39 40 33 -47 c18 -27 39 -48 47 -48 7 0 16 -9 19 -20 6 -23
4 -23 68 -7 l50 13 -42 7 c-28 5 -41 11 -38 20 6 15 104 67 127 67 27 0 70 22
103 52 17 16 35 28 41 28 7 0 15 8 18 17 5 12 19 -13 47 -82 23 -55 46 -111
51 -125 6 -14 12 -34 14 -45 1 -11 16 -76 33 -145 29 -118 42 -201 21 -140
-10 29 -75 272 -84 312 -3 15 -12 33 -20 41 -8 7 -27 44 -43 82 -15 38 -33 70
-39 72 -14 5 -28 -28 -17 -36 10 -7 36 -52 31 -55 -2 -1 -37 -13 -78 -26 -41
-14 -68 -26 -60 -28 8 -1 42 7 74 18 33 11 61 18 63 16 2 -2 13 -61 23 -131
11 -71 22 -131 25 -133 7 -7 5 50 -4 131 -4 37 -4 67 0 67 7 0 36 -77 67 -180
11 -36 34 -110 51 -165 17 -55 33 -118 37 -140 3 -22 21 -100 40 -173 50 -195
50 -195 -62 -153 -43 16 -95 36 -115 45 -35 15 -38 14 -62 -8 -25 -23 -46 -90
-33 -104 9 -9 24 15 36 60 12 43 25 54 44 39 7 -6 37 -18 65 -27 28 -8 51 -19
51 -24 0 -5 7 -6 17 -3 10 4 14 2 10 -4 -5 -7 1 -9 15 -5 14 3 19 1 14 -6 -5
-8 -1 -10 10 -5 11 4 15 2 11 -4 -4 -6 0 -14 9 -17 8 -3 13 -2 10 2 -2 4 -1
14 3 21 7 10 13 10 29 2 43 -23 262 -101 284 -101 13 0 50 -14 83 -30 33 -17
71 -30 85 -30 15 0 64 -13 111 -28 159 -54 194 -55 48 -2 -46 17 -97 34 -114
37 -16 2 -48 13 -71 23 -22 11 -76 28 -118 40 -111 30 -209 65 -213 76 -3 10
19 22 170 87 77 34 126 67 98 67 -7 0 -85 -30 -173 -66 -162 -67 -177 -69
-178 -27 0 7 -16 70 -34 140 -35 127 -66 284 -71 355 -2 20 -15 86 -29 148
-15 61 -29 123 -31 138 -1 15 -22 74 -45 132 -23 58 -44 110 -46 115 -3 6 11
17 31 24 32 11 48 31 25 31 -5 0 0 16 11 35 11 19 19 42 17 52 -2 13 -8 8 -21
-19z"/>
<path d="M1819 1883 l-34 -37 33 27 c19 15 38 27 43 27 5 0 9 5 9 10 0 19 -16
10 -51 -27z"/>
<path d="M1940 1828 c0 -3 14 -38 30 -79 17 -40 29 -77 27 -83 -2 -6 -19 26
-37 72 -19 45 -38 82 -42 82 -4 0 -8 -3 -8 -6 0 -14 94 -229 102 -232 4 -2 8
-10 8 -18 0 -8 13 -40 29 -72 16 -31 45 -100 65 -152 20 -52 38 -96 40 -98 10
-9 -4 75 -20 121 -20 59 -80 184 -100 208 -10 11 -11 18 -3 26 8 8 5 17 -10
32 -11 11 -18 27 -15 34 3 8 -7 45 -22 83 -24 61 -44 99 -44 82z"/>
<path d="M1445 1745 c-33 -30 -55 -55 -48 -55 7 0 37 25 68 55 73 71 58 71
-20 0z"/>
<path d="M2296 1745 c19 -25 30 -33 37 -26 8 8 3 19 -13 36 -37 39 -56 31 -24
-10z"/>
<path d="M2195 1740 l-28 -29 29 -38 c16 -20 32 -41 35 -46 4 -6 20 0 38 13
18 12 38 19 46 16 9 -3 12 0 8 10 -6 17 -15 18 -29 4 -7 -7 -21 2 -44 25 -30
31 -33 38 -22 55 18 30 0 24 -33 -10z m59 -92 c-3 -5 -12 -4 -20 3 -7 6 -12
15 -9 19 3 4 -2 10 -10 14 -8 3 -15 11 -15 18 0 6 13 -1 30 -17 16 -15 27 -32
24 -37z"/>
<path d="M446 1722 c62 -45 114 -74 114 -65 -1 8 -132 93 -145 93 -4 0 10 -13
31 -28z"/>
<path d="M2335 1710 c-9 -14 24 -51 39 -44 6 3 -5 -8 -24 -25 -19 -17 -40 -29
-47 -26 -7 2 -10 -2 -7 -9 3 -8 0 -17 -7 -22 -7 -4 -15 -2 -17 4 -2 7 -8 12
-14 12 -6 0 -6 -6 2 -15 7 -8 16 -15 20 -15 13 0 110 83 110 95 0 19 -47 58
-55 45z"/>
<path d="M1290 1489 c0 -26 17 -130 26 -161 4 -14 -1 -18 -25 -18 -16 0 -32
-4 -35 -9 -10 -16 23 -34 54 -28 40 9 45 -5 16 -48 -37 -54 -42 -109 -16 -178
12 -32 19 -61 16 -64 -3 -3 -8 6 -11 20 -4 14 -20 38 -37 53 l-31 29 22 -31
c27 -37 34 -100 11 -98 -13 2 -107 34 -119 41 -2 1 1 16 7 32 7 19 7 31 1 31
-5 0 -9 -8 -9 -17 -1 -41 -14 -45 -71 -26 -30 11 -66 18 -81 17 -16 -2 -28 1
-28 6 0 5 -6 7 -14 4 -8 -3 -37 6 -65 20 -28 14 -60 26 -71 26 -11 0 -23 7
-26 15 -4 8 -26 20 -50 26 -24 6 -42 14 -40 18 2 3 -6 7 -17 8 -12 1 -38 5
-57 9 l-35 6 43 -31 c49 -36 75 -87 69 -135 l-4 -31 -2 35 c-2 38 -42 102 -82
132 -14 11 -44 22 -67 25 -56 8 -145 -35 -169 -80 -23 -44 -23 -115 0 -131 24
-18 21 -28 -5 -24 -13 2 -22 9 -21 16 3 14 -35 16 -55 3 -14 -8 15 -23 70 -35
34 -8 57 -44 37 -58 -11 -8 -10 -9 3 -5 17 6 35 -22 21 -32 -5 -3 -9 -26 -8
-51 0 -57 -24 -97 -71 -116 -59 -25 -114 -2 -169 71 -9 11 -6 1 6 -23 29 -57
83 -86 151 -80 31 3 57 13 72 27 12 11 25 18 29 15 4 -4 9 0 12 9 8 19 45 16
80 -7 20 -13 25 -14 25 -2 0 17 -58 46 -77 39 -9 -4 -7 6 7 30 12 20 21 47 20
59 -4 43 0 48 33 48 53 0 130 44 155 89 27 48 29 114 4 163 l-19 36 31 -13
c59 -25 126 -67 126 -78 0 -7 -17 -21 -37 -32 -41 -22 -99 -92 -109 -131 -18
-71 29 -168 96 -199 37 -17 130 -23 151 -9 9 5 10 2 4 -12 -4 -10 -10 -44 -12
-74 -4 -48 -1 -59 21 -84 32 -36 90 -57 126 -44 15 5 46 29 70 53 56 57 70 57
71 3 l1 -43 22 70 c22 68 37 84 64 66 11 -6 10 -20 -3 -72 -22 -89 -22 -88
-43 -82 -17 4 -18 8 -6 41 6 20 15 55 18 77 5 34 3 31 -13 -18 -30 -92 -30
-91 -45 -78 -24 20 -44 1 -57 -52 -6 -29 -22 -87 -35 -131 -22 -74 -23 -96 -5
-96 7 0 11 14 12 51 0 9 14 57 30 105 17 49 28 78 26 64 -11 -61 -48 -214 -57
-230 -8 -16 -3 -21 37 -34 56 -19 97 -21 87 -4 -8 12 56 288 67 288 10 0 -32
-196 -57 -265 -5 -15 -4 -17 5 -9 14 13 82 264 75 276 -3 4 -12 8 -20 8 -11 0
-13 6 -8 23 4 12 10 24 14 27 18 12 31 54 25 78 -6 26 -38 55 -63 59 -23 3
-25 11 -8 35 27 38 20 52 -13 26 -17 -13 -28 -29 -26 -36 6 -16 -41 -68 -124
-139 -56 -47 -67 -53 -95 -48 -44 9 -86 57 -86 99 0 28 15 53 76 130 41 53 79
94 84 91 5 -3 11 -1 14 4 11 17 -15 23 -32 9 -36 -31 -39 -29 -34 27 6 68 -1
96 -34 134 -24 29 -24 31 -6 31 11 0 39 -7 62 -15 23 -8 53 -15 66 -15 30 0
104 -29 104 -41 0 -17 -43 -69 -57 -69 -7 0 -13 -4 -13 -10 0 -20 16 -9 87 59
40 38 75 66 78 61 3 -5 23 -22 44 -39 34 -27 38 -28 34 -11 -5 18 -1 20 40 20
36 0 54 7 88 33 61 46 84 89 84 159 0 48 -5 64 -33 103 -50 72 -52 70 58 80
30 2 82 13 115 24 l60 20 -135 -4 c-74 -2 -187 -10 -250 -18 -63 -8 -116 -13
-118 -12 -1 1 -9 44 -18 96 -17 97 -24 121 -24 78z m258 -229 c45 -28 76 -98
68 -154 -25 -157 -217 -194 -285 -54 -26 55 -27 90 -1 143 38 78 145 110 218
65z m-955 -124 c116 -48 116 -204 0 -252 -38 -16 -66 -19 -43 -4 11 7 7 10
-18 10 -46 0 -88 27 -108 69 -15 30 -15 42 -4 85 15 60 25 75 65 92 39 17 68
17 108 0z m375 -154 c47 -24 79 -104 68 -167 -6 -28 -10 -35 -17 -24 -7 11 -9
11 -9 -3 0 -27 -57 -86 -95 -98 -91 -30 -195 47 -195 144 0 47 13 77 50 120
51 58 121 68 198 28z m-478 -216 c-8 -37 -35 -76 -52 -76 -5 0 -2 10 6 21 8
12 12 27 9 35 -2 7 3 27 13 43 17 29 17 31 1 44 -12 8 -16 19 -11 31 6 15 10
11 25 -21 14 -30 16 -48 9 -77z m770 -326 c43 -1 44 -13 10 -146 -19 -71 -35
-131 -36 -133 -2 -2 -18 -1 -37 3 l-34 6 33 116 c35 123 37 141 14 170 -14 17
-14 17 10 1 13 -9 31 -17 40 -17z"/>
<path d="M503 1054 c-16 -12 -15 -13 14 -8 21 4 39 2 50 -7 16 -13 17 -12 5 2
-18 24 -48 29 -69 13z"/>
<path d="M637 1046 c-4 -9 -2 -18 3 -21 23 -14 9 -59 -30 -97 -46 -43 -46 -44
-1 -22 53 26 77 97 47 137 -12 15 -14 15 -19 3z"/>
<path d="M1204 1410 c5 -46 13 -81 23 -90 13 -13 15 -13 9 5 -3 11 -10 49 -15
84 -14 90 -25 91 -17 1z"/>
<path d="M1743 1293 c-4 -10 -28 -72 -55 -138 -42 -104 -46 -121 -33 -131 16
-12 20 -34 6 -34 -16 0 -29 -56 -26 -113 l4 -57 -31 16 c-45 23 -43 12 4 -15
22 -12 37 -18 34 -12 -4 7 1 11 13 11 29 0 74 22 61 30 -8 5 -4 26 13 66 22
51 29 59 52 59 24 0 30 9 75 125 28 69 49 132 47 140 -1 8 -18 -22 -36 -67
-19 -46 -36 -81 -38 -79 -3 2 10 38 27 80 29 69 32 96 10 96 -4 0 -11 -12 -14
-27 -4 -16 -26 -77 -48 -136 -33 -86 -45 -107 -57 -101 -9 3 -24 9 -33 11 -10
3 -18 9 -18 13 0 4 17 54 39 111 55 149 56 153 37 146 -8 -3 -18 -2 -21 3 -3
4 1 11 7 13 10 4 10 6 0 6 -7 1 -16 -7 -19 -16z m-23 -169 c-17 -49 -24 -36
-9 17 6 24 14 38 16 32 3 -7 -1 -29 -7 -49z m7 -132 c10 -6 6 -26 -15 -85 -25
-70 -30 -76 -46 -64 -16 12 -16 16 6 85 23 70 31 80 55 64z"/>
<path d="M1766 1150 c-22 -55 -36 -103 -33 -106 3 -4 14 13 24 37 10 24 30 68
45 98 25 51 28 71 10 71 -4 0 -25 -45 -46 -100z"/>
<path d="M986 1109 c-17 -42 -15 -66 2 -32 11 22 24 73 18 73 -2 0 -11 -19
-20 -41z"/>
<path d="M2671 1074 c-48 -89 -51 -102 -12 -54 40 47 46 35 10 -18 -26 -38
-25 -48 5 -43 4 1 20 -6 33 -15 18 -11 22 -19 14 -27 -8 -8 -14 -8 -23 1 -17
17 -45 15 -52 -3 -4 -12 4 -15 40 -15 35 0 45 -3 41 -14 -9 -23 -179 -281
-190 -287 -5 -4 -1 -11 10 -17 17 -10 31 5 126 138 59 82 107 155 107 161 0 7
-7 20 -16 30 -15 17 -15 22 2 65 11 26 27 49 36 51 9 3 24 15 32 28 17 26 9
39 -35 50 -21 5 -27 2 -37 -19 -13 -29 1 -36 17 -9 5 10 13 14 17 10 5 -4 3
-16 -4 -25 -7 -9 -22 -38 -34 -64 -11 -27 -25 -48 -29 -48 -8 0 -24 8 -58 27
-2 2 1 8 7 16 22 26 73 138 67 147 -15 24 -36 5 -74 -66z m69 61 c0 -18 -25
-52 -36 -48 -17 6 3 53 23 53 7 0 13 -2 13 -5z m-71 -395 c-45 -66 -87 -124
-92 -127 -5 -3 30 53 79 124 49 72 91 129 93 127 1 -1 -34 -57 -80 -124z"/>
<path d="M1748 910 c-10 -24 -16 -45 -14 -48 8 -7 37 59 34 76 -2 10 -10 -2
-20 -28z"/>
<path d="M212 914 c-37 -26 -55 -71 -47 -120 3 -24 10 -44 14 -44 5 0 6 11 3
25 -6 32 5 85 23 108 7 11 31 25 52 32 38 14 38 14 8 15 -17 0 -41 -7 -53 -16z"/>
<path d="M1350 840 c-18 -28 -43 -59 -56 -69 -22 -18 -23 -19 -5 -35 22 -20
35 -21 28 -2 -6 16 34 76 77 115 19 18 23 27 14 33 -21 13 -24 10 -58 -42z"/>
<path d="M1500 849 c12 -8 10 -9 -8 -4 -50 14 -121 -62 -137 -146 -9 -51 21
-117 74 -159 39 -32 40 -34 24 -52 -24 -26 -35 -151 -18 -192 31 -73 109 -107
197 -85 78 18 122 72 133 161 3 23 7 43 9 46 3 2 40 -30 83 -71 43 -41 112
-98 153 -127 41 -29 86 -63 100 -75 25 -23 101 -43 80 -21 -6 6 -75 56 -153
111 -78 55 -141 105 -140 110 1 5 7 11 14 14 8 2 10 -2 6 -12 -9 -23 15 -11
32 16 8 12 23 38 35 57 l20 35 -25 -25 c-14 -14 -24 -28 -22 -31 5 -11 -25
-44 -33 -36 -4 4 -2 13 4 19 7 7 12 17 12 23 0 5 -11 -3 -24 -20 -18 -22 -28
-27 -35 -19 -8 7 -6 16 9 29 11 10 20 23 20 28 0 6 -8 0 -19 -11 -24 -28 -29
-28 -75 14 l-40 34 22 20 c12 12 22 24 22 27 0 3 -8 -1 -18 -10 -26 -24 -34
-22 -72 18 -31 32 -34 40 -34 95 1 33 -3 60 -7 60 -8 0 -20 -52 -21 -90 0 -14
-3 -19 -5 -12 -3 6 -9 10 -14 6 -12 -7 -11 -1 5 30 7 14 12 38 10 53 -1 16 4
36 13 45 13 15 14 22 3 48 -7 17 -17 33 -23 37 -6 4 -7 1 -2 -8 5 -8 -7 0 -27
18 -20 17 -51 34 -70 38 -29 7 -30 9 -13 16 15 6 10 8 -20 8 -31 1 -37 -2 -25
-10z m73 -43 c46 -19 107 -96 77 -96 -6 0 -10 -16 -10 -35 0 -50 -23 -89 -64
-109 -43 -20 -59 -20 -102 0 -41 20 -67 64 -67 116 0 21 -4 35 -8 32 -14 -8
-11 5 8 36 19 32 78 69 111 70 12 0 37 -6 55 -14z m-161 -225 c18 -29 19 -33
4 -22 -22 18 -46 65 -45 88 0 13 3 12 10 -6 5 -14 20 -41 31 -60z m231 -40 c4
-1 7 -6 7 -12 0 -6 7 -17 15 -25 11 -11 15 -12 15 -3 0 13 14 3 16 -12 1 -5 2
-13 3 -18 0 -5 7 -16 15 -24 23 -23 36 -85 25 -115 -24 -63 -84 -102 -156
-102 -75 0 -145 55 -145 113 0 33 42 127 58 127 7 0 17 6 21 14 13 21 48 36
71 29 23 -6 29 6 12 23 -7 7 -4 10 12 8 13 -1 26 -3 31 -3z m-133 -35 c0 -7
-9 -16 -20 -19 -22 -6 -23 -5 -14 17 8 20 34 21 34 2z"/>
<path d="M1176 732 c-4 -7 3 -16 18 -24 14 -6 26 -15 26 -20 0 -4 5 -8 10 -8
19 0 10 21 -14 30 -13 5 -26 14 -28 21 -3 10 -6 10 -12 1z"/>
<path d="M1815 721 c3 -6 48 -30 100 -55 52 -25 95 -48 95 -53 0 -4 -4 -14 -9
-22 -7 -10 -26 -5 -96 28 -49 23 -90 40 -92 38 -3 -4 170 -87 181 -87 7 0 39
61 34 65 -6 6 -205 95 -212 95 -4 0 -5 -4 -1 -9z"/>
<path d="M691 658 c-19 -21 -31 -41 -28 -44 5 -6 22 11 50 50 13 18 16 16 53
-31 21 -28 92 -109 157 -181 64 -71 117 -133 117 -136 0 -4 -23 -32 -52 -62
l-51 -54 -26 22 -26 23 24 -27 c14 -16 21 -28 16 -28 -7 0 -138 102 -208 162
-18 15 -36 28 -40 28 -5 0 -5 5 -2 10 4 6 3 9 -2 8 -4 -2 -25 9 -45 25 -21 15
-54 38 -73 52 -21 16 -32 31 -29 40 4 8 9 13 14 10 4 -2 20 10 36 28 29 31 29
32 2 8 -31 -27 -37 -18 -12 17 8 12 13 26 9 31 -3 6 3 14 12 20 14 7 15 13 6
21 -8 9 -14 7 -23 -10 -9 -17 -17 -20 -42 -15 -21 5 -28 4 -24 -4 4 -6 13 -11
21 -11 26 0 26 -19 0 -71 -24 -46 -29 -50 -53 -44 -46 11 -56 28 -38 61 29 52
41 69 53 77 7 4 10 14 6 23 -4 11 -9 12 -19 3 -8 -6 -12 -15 -9 -19 2 -4 -4
-16 -14 -26 -10 -11 -26 -32 -36 -47 -10 -16 -21 -24 -24 -18 -4 6 -18 12 -31
13 -22 3 -32 -11 -102 -147 -55 -106 -76 -157 -73 -173 4 -15 2 -21 -5 -17
-12 7 -13 -5 -2 -21 12 -19 76 -54 97 -54 15 1 13 4 -10 14 -18 7 -25 15 -18
19 6 4 14 3 18 -3 3 -5 16 -10 28 -10 16 0 18 3 9 9 -10 6 -8 10 8 14 17 4 20
2 15 -11 -8 -21 -13 -27 99 116 91 116 108 140 87 128 -4 -3 -21 5 -36 18 -15
13 -34 22 -41 19 -28 -10 -116 62 -97 80 7 8 51 -12 89 -40 17 -13 38 -23 47
-23 10 0 17 -5 17 -11 0 -5 5 -7 10 -4 6 3 10 1 10 -5 0 -7 7 -10 15 -6 25 9
225 -132 331 -235 29 -27 56 -49 62 -49 13 0 142 137 142 151 0 17 -177 218
-304 345 l-31 31 -34 -39z m-426 -282 c-31 -58 -59 -106 -61 -106 -3 0 21 50
52 110 31 61 59 109 61 106 2 -2 -22 -51 -52 -110z m121 73 c3 -6 17 -9 31 -6
15 3 27 -1 30 -9 2 -7 12 -10 21 -7 12 5 14 2 9 -12 -7 -16 -5 -16 10 -4 15
12 16 12 8 -1 -15 -28 -38 -50 -46 -45 -4 3 -11 0 -15 -6 -4 -8 -3 -9 4 -5 21
13 13 -3 -34 -64 -26 -33 -50 -57 -54 -55 -4 3 -13 -2 -20 -10 -7 -8 -16 -13
-20 -10 -5 3 -15 -2 -24 -11 -9 -8 -21 -12 -26 -9 -6 4 -17 2 -24 -4 -10 -8
-17 -7 -26 4 -7 9 -8 15 -2 15 6 0 38 51 73 113 81 146 88 154 105 126z"/>
<path d="M1720 639 c8 -8 53 -41 100 -73 47 -32 89 -65 93 -72 4 -8 16 -14 26
-14 10 0 21 -3 25 -7 3 -4 15 -8 26 -10 10 -1 76 -48 147 -104 185 -147 212
-178 48 -56 -44 33 -86 65 -92 70 -7 5 -13 7 -13 4 0 -2 45 -40 100 -82 55
-43 100 -82 100 -87 0 -14 -30 -68 -38 -68 -4 0 -62 41 -130 90 -68 49 -132
95 -143 100 -47 25 -9 -5 121 -100 77 -56 138 -105 135 -110 -14 -23 24 4 44
31 42 56 37 83 -30 152 -32 34 -59 66 -59 70 0 13 90 -40 337 -200 36 -24 68
-43 72 -43 3 0 19 -7 35 -15 16 -9 31 -13 34 -10 11 11 -38 45 -263 181 -126
76 -276 169 -333 206 -57 37 -105 68 -107 68 -2 0 -43 18 -92 41 -96 45 -170
64 -143 38z"/>
<path d="M1858 471 c18 -17 37 -31 43 -31 18 0 -5 22 -43 43 l-33 19 33 -31z"/>
<path d="M2727 202 c-39 -83 -47 -111 -21 -74 19 28 67 143 61 148 -2 2 -20
-31 -40 -74z"/>
<path d="M1048 185 c-32 -35 -58 -65 -58 -69 0 -12 53 15 72 37 19 22 52 87
46 92 -2 1 -29 -26 -60 -60z"/>
</g>
</svg>
