<?xml version="1.0" standalone="no"?>
<!DOCTYPE svg PUBLIC "-//W3C//DTD SVG 20010904//EN"
 "http://www.w3.org/TR/2001/REC-SVG-20010904/DTD/svg10.dtd">
<svg version="1.0" xmlns="http://www.w3.org/2000/svg"
 width="300.000000pt" height="208.000000pt" viewBox="0 0 300.000000 208.000000"
 preserveAspectRatio="xMidYMid meet">
<metadata>
Created by potrace 1.10, written by Peter Selinger 2001-2011
</metadata>
<g transform="translate(0.000000,208.000000) scale(0.100000,-0.100000)"
fill="#000000" stroke="none">
<path d="M1961 1984 c-28 -25 -51 -50 -51 -55 0 -15 61 -94 72 -94 6 0 17 -11
26 -25 l14 -25 -21 25 c-39 47 -21 9 40 -83 34 -51 64 -94 65 -96 6 -7 46 16
97 55 27 21 45 29 41 20 -4 -11 -2 -15 8 -11 15 6 114 -122 103 -134 -4 -3
-14 3 -24 15 -13 16 -20 18 -34 10 -13 -9 -23 -3 -52 28 -29 32 -33 41 -23 55
7 9 -2 3 -20 -13 -34 -31 -34 -32 12 -89 20 -25 33 -34 40 -27 15 15 24 12 37
-11 10 -20 9 -21 -9 -17 -15 4 -19 2 -15 -8 7 -20 15 -18 59 14 68 50 70 56
34 102 -17 22 -42 48 -54 58 -31 24 -36 44 -18 65 15 17 7 27 -118 152 -74 74
-140 135 -146 135 -7 0 -35 -21 -63 -46z m184 -102 l120 -123 -24 -20 -24 -19
-76 82 c-190 207 -218 223 -56 33 55 -65 100 -122 100 -129 0 -40 -63 28 -167
182 -48 71 -49 74 -33 98 9 14 22 24 28 22 7 -2 66 -58 132 -126z m-178 40
c11 -15 23 -39 27 -52 6 -24 6 -24 -9 3 -18 31 -31 37 -15 6 19 -34 4 -33 -18
2 -11 17 -17 40 -15 50 7 24 5 24 30 -9z m118 -179 c47 -68 55 -83 30 -63 -17
14 -18 13 -11 -5 9 -25 0 -15 -48 53 -32 47 -39 72 -18 72 4 0 25 -26 47 -57z
m235 -207 c-7 -7 -16 -4 -28 7 -15 16 -15 19 -2 27 19 12 46 -18 30 -34z"/>
<path d="M2593 2013 c-17 -51 -99 -246 -156 -376 -37 -81 -64 -154 -61 -161 7
-17 89 -62 131 -71 27 -5 34 -3 49 22 10 15 26 37 35 48 10 11 44 67 75 125
31 58 85 149 121 204 35 54 63 100 61 101 -2 1 -58 30 -126 64 -108 54 -123
59 -129 44z m127 -73 c66 -33 98 -54 94 -63 -2 -7 -25 -30 -50 -51 -25 -21
-43 -40 -41 -43 3 -2 -11 -32 -31 -66 -74 -129 -96 -172 -98 -191 -2 -26 -2
-26 -91 17 -69 33 -71 35 -54 51 10 10 36 65 56 124 85 242 97 272 106 272 5
0 54 -22 109 -50z m-218 -412 c65 -28 73 -39 53 -78 -9 -17 -19 -30 -23 -28
-4 2 -37 18 -73 36 l-66 33 11 34 c12 39 13 39 98 3z"/>
<path d="M1040 1975 c-55 -23 -55 -23 -70 -4 -16 20 -18 20 -145 -26 -72 -25
-136 -48 -142 -50 -17 -6 -17 -9 15 -90 23 -58 32 -70 52 -73 14 -1 79 17 145
42 98 36 121 48 123 66 2 12 15 25 30 31 86 31 102 42 102 71 0 15 -5 28 -11
28 -26 0 -133 -45 -116 -48 10 -2 36 4 59 13 77 30 53 -11 -26 -44 l-45 -20
-11 35 c-7 20 -10 37 -8 38 1 2 35 14 73 29 39 14 61 26 50 26 -11 -1 -45 -11
-75 -24z m-72 -35 c2 -11 -29 -26 -110 -55 -158 -56 -158 -56 -165 -39 -3 8
-3 17 0 20 12 13 234 92 252 91 11 -1 21 -9 23 -17z m8 -64 c3 -14 13 -27 22
-29 10 -3 5 -5 -10 -6 -14 0 -48 -10 -74 -21 -26 -12 -54 -18 -61 -16 -8 3
-12 2 -9 -3 3 -5 -6 -14 -22 -19 -15 -5 -36 -13 -47 -18 -11 -4 -17 -4 -13 1
4 4 1 14 -7 22 -22 21 -18 33 8 33 13 0 27 3 30 6 6 7 155 70 169 73 4 0 10
-10 14 -23z"/>
<path d="M1260 1966 c-45 -31 -79 -77 -86 -118 -3 -18 -7 -43 -10 -55 -3 -15
0 -21 9 -18 7 3 21 -1 32 -9 19 -15 19 -15 -5 -16 -24 -1 -24 -1 -3 -10 33
-13 47 -48 47 -120 0 -74 -18 -111 -66 -136 -26 -14 -34 -14 -78 1 -54 18
-115 77 -126 121 -17 67 54 164 121 164 38 0 64 14 42 23 -24 9 -83 -11 -117
-40 -123 -103 -45 -293 121 -293 80 0 131 49 145 139 6 37 5 41 -12 34 -16 -6
-16 -5 -4 8 10 11 29 14 69 11 46 -3 62 0 90 20 54 37 74 71 79 135 3 52 1 62
-27 100 -58 80 -154 105 -221 59z m151 -19 c73 -49 89 -149 34 -207 -16 -16
-32 -27 -37 -24 -4 3 -8 1 -8 -5 0 -6 -7 -8 -15 -5 -8 4 -15 1 -15 -5 0 -6
-13 -11 -30 -11 -16 0 -30 5 -30 10 0 6 -7 10 -16 10 -19 0 -76 58 -69 70 3 5
1 28 -4 51 -12 52 5 91 52 119 43 27 96 25 138 -3z"/>
<path d="M1295 1946 c-32 -14 -61 -43 -52 -52 3 -3 10 3 16 14 13 25 72 46
103 37 18 -5 20 -4 8 4 -20 14 -38 13 -75 -3z"/>
<path d="M1315 1887 c-16 -13 -15 -13 15 -9 25 3 37 0 47 -14 7 -10 13 -13 13
-6 0 10 -38 42 -50 42 -4 0 -14 -6 -25 -13z"/>
<path d="M1455 1807 c-4 -17 -25 -41 -48 -58 -45 -33 -43 -36 7 -12 35 16 62
60 53 85 -2 7 -8 0 -12 -15z"/>
<path d="M400 1967 c0 -3 69 -65 153 -138 83 -73 190 -170 237 -214 47 -45
106 -96 132 -114 27 -17 48 -34 48 -36 0 -2 -17 -29 -38 -59 l-39 -55 -62 40
c-34 21 -67 39 -73 39 -6 0 -59 26 -117 57 -58 31 -99 48 -91 38 12 -14 4 -12
-36 8 -28 14 -60 25 -70 25 -37 -2 -290 136 -281 153 1 3 -4 -1 -12 -8 -8 -7
-13 -14 -10 -16 41 -34 328 -181 336 -173 3 3 18 -1 33 -9 15 -8 41 -17 57
-19 38 -7 313 -144 313 -156 0 -15 -4 -13 -78 25 -161 83 -335 164 -317 147 6
-5 100 -55 210 -112 110 -56 244 -132 298 -168 78 -53 101 -64 114 -56 17 11
83 121 83 139 0 6 -43 42 -96 80 -53 38 -106 78 -118 89 -17 17 -484 422 -558
484 -10 8 -18 12 -18 9z m706 -622 c16 -17 38 -36 48 -42 16 -9 15 -14 -18
-66 -20 -32 -40 -57 -44 -57 -13 0 -202 133 -202 143 0 14 23 3 106 -54 41
-28 78 -49 80 -46 2 2 -34 29 -81 60 -47 32 -85 62 -85 67 0 28 35 16 105 -34
43 -31 85 -56 93 -56 20 0 14 5 -81 70 -43 29 -80 57 -83 62 -8 12 16 39 27
32 5 -3 9 -2 8 3 -1 4 -1 12 0 17 1 10 83 -54 127 -99z"/>
<path d="M1861 1882 c-15 -28 -14 -32 9 -32 21 0 26 16 11 39 -7 11 -11 10
-20 -7z"/>
<path d="M1900 1856 c0 -22 -15 -44 -67 -95 -38 -37 -79 -72 -93 -79 -14 -7
-43 -22 -64 -33 l-40 -21 -18 24 c-9 12 -18 29 -18 35 0 7 -16 30 -35 50 l-35
37 0 -26 c0 -15 6 -31 13 -35 16 -10 57 -63 57 -73 0 -7 -85 -60 -96 -60 -1 0
-12 14 -24 31 l-22 30 23 27 c16 19 13 17 -11 -5 l-34 -32 27 -21 c34 -27 34
-43 1 -61 -25 -13 -28 -12 -60 24 -19 20 -34 33 -34 29 0 -4 17 -26 38 -49
l37 -42 80 49 c64 40 86 48 110 44 21 -4 38 0 55 14 14 10 39 26 57 35 l31 17
15 -43 c9 -23 27 -70 42 -104 14 -34 75 -236 136 -447 60 -212 115 -398 122
-415 l13 -30 154 65 c85 36 165 69 177 74 15 6 21 15 17 25 -8 20 -22 19 -26
-1 -2 -10 -41 -32 -98 -56 -52 -22 -121 -51 -154 -65 -36 -15 -62 -21 -68 -15
-15 15 -74 238 -97 372 -31 176 -82 403 -93 417 -5 7 -5 12 2 15 6 2 -11 54
-40 123 -42 100 -47 121 -35 128 8 4 15 13 15 19 0 5 11 23 25 40 31 36 40 71
26 95 -9 16 -10 14 -11 -11z m-86 -169 c-2 -7 14 -58 36 -113 40 -98 94 -287
87 -307 -2 -8 -42 122 -52 173 -2 8 -15 42 -30 75 -49 110 -67 168 -53 177 17
10 18 10 12 -5z"/>
<path d="M1940 1744 c0 -16 59 -157 71 -169 6 -5 -1 20 -14 57 -28 73 -56 129
-57 112z"/>
<path d="M1910 1731 c0 -15 92 -231 99 -231 33 1 34 54 1 63 -11 3 -29 35 -51
91 -30 75 -49 106 -49 77z"/>
<path d="M439 1642 c34 -29 151 -98 151 -89 0 5 -139 96 -170 111 -8 4 0 -6
19 -22z"/>
<path d="M2696 1588 c-7 -18 -32 -86 -56 -151 -24 -65 -48 -121 -55 -123 -8
-3 -10 -21 -7 -54 3 -38 0 -56 -17 -84 -23 -36 -90 -76 -129 -76 -43 0 -101
32 -123 67 -23 37 -37 39 -19 1 l11 -23 -20 24 c-22 24 -28 75 -11 86 6 3 10
12 10 18 0 7 -4 6 -10 -3 -8 -12 -10 -9 -10 12 0 28 39 81 73 100 12 6 46 14
77 18 l55 7 -56 2 c-45 1 -63 -4 -101 -28 -26 -17 -54 -43 -62 -60 -36 -69 -6
-171 63 -218 26 -18 48 -23 93 -23 64 0 88 9 131 48 l27 26 0 -30 c0 -16 -4
-45 -9 -64 -27 -105 -18 -142 34 -133 31 6 74 56 82 94 3 16 9 29 14 29 5 0 9
5 9 11 0 5 -4 8 -9 5 -12 -8 25 90 49 129 20 33 112 336 114 374 1 13 -4 26
-9 28 -9 3 -113 -320 -118 -367 -1 -8 -4 -17 -8 -20 -10 -10 -37 -75 -44 -108
-6 -30 -10 -33 -33 -27 -15 4 -29 8 -31 10 -2 2 4 25 13 51 9 26 16 58 16 70
0 17 4 22 15 18 8 -4 15 -3 15 0 0 4 -15 12 -32 18 -33 12 -33 12 -8 19 24 7
24 7 3 8 -27 1 -29 13 -8 31 8 7 15 19 15 26 0 8 4 22 10 32 5 9 15 31 21 47
6 17 13 25 16 18 2 -7 -5 -33 -16 -59 -21 -47 -28 -86 -13 -69 9 11 102 296
102 314 0 6 -9 11 -21 11 -13 0 -24 -11 -33 -32z m-42 -538 c7 -7 4 -21 -9
-43 -23 -39 -44 -56 -69 -57 -16 0 -17 5 -11 46 10 72 14 77 49 70 17 -4 35
-11 40 -16z"/>
<path d="M1705 1519 c-38 -10 -146 -34 -239 -54 -93 -19 -171 -37 -174 -40 -3
-3 0 -40 6 -83 7 -42 12 -82 12 -89 0 -17 -43 -3 -62 21 l-18 21 0 -25 c0 -56
3 -57 325 -26 88 9 186 16 218 16 31 0 57 3 57 8 0 4 -9 63 -20 132 -11 69
-20 128 -20 133 0 9 -2 9 -85 -14z m74 -106 c32 -143 38 -133 -76 -133 -54 0
-125 -4 -158 -9 -33 -5 -95 -12 -137 -16 l-77 -7 -9 39 c-6 21 -13 56 -16 78
l-6 41 148 33 c81 18 181 43 222 55 41 13 78 20 82 17 4 -3 16 -48 27 -98z"/>
<path d="M2050 1507 c0 -9 81 -165 165 -317 34 -63 59 -117 54 -120 -9 -6 5
-34 14 -28 7 4 74 -91 116 -165 18 -32 35 -56 37 -54 3 2 -33 68 -78 146 -46
78 -96 165 -112 194 -15 29 -58 106 -94 172 -78 143 -102 183 -102 172z"/>
<path d="M2020 1485 c0 -23 61 -155 72 -155 5 0 7 -4 4 -9 -3 -4 6 -39 21 -76
20 -52 28 -64 35 -51 6 11 2 31 -12 62 -11 26 -20 52 -20 59 0 14 -89 185 -96
185 -2 0 -4 -7 -4 -15z"/>
<path d="M507 1337 c0 -28 2 -62 2 -75 1 -13 6 -20 11 -17 6 3 10 3 10 -2 -1
-19 -18 -30 -63 -42 -62 -15 -237 -23 -237 -10 0 5 -9 9 -19 9 -11 0 -23 5
-26 10 -3 6 -2 10 4 10 5 0 8 12 6 28 -2 15 -4 36 -5 47 -1 19 -1 19 -14 2
-14 -18 -14 -18 -20 0 -3 10 -4 -6 -2 -35 3 -56 23 -87 66 -104 16 -6 73 -5
164 3 131 11 142 14 165 39 32 33 119 54 174 41 l37 -9 0 53 c0 30 -5 57 -12
61 -8 5 -9 -7 -5 -45 5 -45 4 -51 -8 -41 -8 7 -24 9 -36 5 -14 -5 -19 -3 -15
3 4 7 -1 9 -11 7 -18 -3 -84 -19 -113 -26 -20 -5 -38 66 -23 90 12 19 0 51
-20 51 -8 0 -11 -17 -10 -53z"/>
<path d="M680 1224 c0 -9 301 -127 324 -127 8 0 12 -6 9 -14 -4 -9 0 -11 11
-7 20 8 20 -5 0 -34 -8 -12 -13 -28 -11 -35 3 -6 10 3 17 21 10 28 40 46 40
24 0 -4 25 -16 55 -27 30 -10 55 -22 55 -27 0 -5 5 -6 10 -3 11 7 66 -27 88
-53 13 -17 17 -66 4 -60 -4 2 -31 12 -61 23 -49 18 -52 21 -47 48 4 17 2 26
-4 22 -6 -3 -10 -12 -10 -18 -1 -34 -16 -38 -70 -18 -29 11 -57 18 -61 15 -4
-2 -10 0 -14 5 -3 6 -13 7 -22 4 -13 -5 -15 -2 -10 11 12 30 20 71 13 65 -3
-3 -11 -22 -18 -42 l-13 -36 -137 63 c-75 35 -149 67 -165 71 -25 6 -26 8 -9
14 14 5 16 10 8 15 -19 11 -3 27 21 22 12 -3 9 0 -8 8 -34 16 -45 8 -45 -35 0
-28 3 -30 160 -101 103 -47 182 -76 225 -83 42 -6 106 -24 212 -57 35 -11 67
-17 73 -13 5 3 10 21 10 40 0 42 -35 73 -139 121 -42 20 -87 46 -101 59 -14
12 -43 28 -65 35 -22 7 -91 33 -153 57 -122 47 -172 61 -172 47z"/>
<path d="M1694 1087 c-48 -123 -50 -133 -35 -147 16 -13 15 -19 -11 -83 -22
-53 -26 -73 -17 -83 14 -17 31 -18 27 -1 -1 6 6 40 17 74 14 44 25 63 37 63
29 0 29 -16 -2 -89 -27 -67 -28 -71 -9 -71 13 0 19 7 19 24 0 13 9 45 20 71
18 41 23 46 43 41 22 -5 27 3 75 125 29 71 52 136 52 144 0 11 -24 25 -50 30
-3 0 -16 7 -28 14 -13 7 -26 10 -30 7 -3 -3 0 -6 6 -6 6 0 9 -7 6 -15 -5 -11
1 -15 19 -15 26 0 26 0 13 -42 -7 -24 -28 -81 -46 -126 -29 -75 -34 -83 -54
-77 -11 3 -27 7 -33 7 -19 2 -17 9 32 140 25 66 45 126 45 134 0 8 -10 14 -22
14 -20 0 -30 -18 -74 -133z"/>
<path d="M1394 1186 c-82 -36 -119 -154 -73 -235 41 -74 163 -106 235 -62 53
32 77 83 72 151 -9 123 -123 194 -234 146z m133 -16 c55 -24 83 -70 83 -134 0
-88 -59 -149 -146 -149 -157 0 -202 212 -61 282 52 26 70 26 124 1z"/>
<path d="M1782 1108 c-67 -175 -64 -165 -43 -140 11 12 31 54 46 92 15 38 31
72 36 76 14 8 11 24 -5 24 -7 0 -22 -24 -34 -52z"/>
<path d="M462 1073 c-81 -39 -117 -177 -56 -211 14 -8 13 -10 -10 -14 -24 -5
-31 2 -27 25 1 8 -16 9 -46 1 -43 -12 -26 -23 73 -49 20 -5 62 -85 45 -85 -4
0 -7 -25 -7 -55 0 -77 -23 -100 -96 -96 -65 3 -103 22 -128 64 -24 39 -26 104
-4 136 9 13 33 30 53 39 l36 16 -28 4 c-62 8 -115 -65 -103 -142 9 -56 38 -98
84 -124 49 -27 103 -28 160 -2 23 10 42 15 42 10 0 -5 -14 -31 -31 -59 -25
-41 -37 -51 -58 -51 -25 0 -34 -14 -111 -171 -94 -191 -94 -189 -17 -227 41
-21 48 -22 67 -9 11 7 17 17 13 20 -3 4 1 7 10 7 16 0 22 12 17 35 -1 6 2 7 6
3 4 -4 13 -3 21 3 16 14 18 33 1 23 -7 -4 -8 -3 -4 5 4 6 11 9 16 6 12 -7 33
22 24 36 -4 7 -3 9 4 6 5 -4 34 23 63 60 44 56 53 75 52 106 l0 37 37 -32 c20
-18 70 -60 111 -93 40 -33 127 -106 191 -163 l118 -102 40 36 c22 20 37 40 34
46 -7 11 -19 1 -19 -15 0 -7 -12 -17 -26 -24 -20 -10 -31 -10 -51 -1 l-26 12
61 69 61 69 24 -27 c13 -15 25 -25 27 -23 6 6 -33 51 -164 191 -63 67 -137
150 -165 185 l-50 63 -93 -93 c-51 -50 -95 -89 -98 -86 -4 3 5 24 19 47 14 22
26 45 26 50 0 5 6 11 13 14 27 9 -62 77 -102 77 -15 0 -19 4 -14 18 6 14 4 15
-8 5 -12 -10 -15 -7 -14 17 0 16 9 38 19 49 10 11 16 27 13 36 -5 12 4 15 51
15 120 0 197 72 189 178 -4 59 -25 94 -77 130 -41 27 -137 30 -188 5z m149
-28 c65 -34 89 -128 49 -193 -11 -18 -25 -30 -30 -27 -6 3 -10 1 -10 -5 0 -23
-51 -31 -106 -15 -85 24 -119 89 -91 170 26 74 115 107 188 70z m-139 -467
c-16 -16 -15 -28 3 -28 8 0 14 3 14 8 -8 47 17 54 58 16 18 -16 22 -24 11 -20
-10 3 -18 1 -18 -5 0 -6 -10 -8 -22 -4 l-23 6 24 -20 c16 -15 21 -26 16 -38
-5 -10 -9 -24 -11 -31 -1 -7 -10 -24 -18 -37 -17 -26 -30 -25 -74 3 -20 13
-21 17 -9 31 8 9 17 24 20 34 4 9 11 17 17 17 5 0 10 8 10 18 -1 12 -12 4 -40
-27 -22 -24 -40 -39 -40 -34 0 6 10 21 23 35 12 14 31 41 41 61 11 21 22 35
24 32 3 -3 0 -11 -6 -17z m314 -69 c27 -34 64 -80 82 -103 18 -22 62 -71 98
-107 35 -36 64 -70 64 -75 0 -5 -20 -31 -44 -58 l-44 -49 -93 79 c-52 44 -125
102 -164 129 -38 27 -76 55 -83 62 -7 7 -20 13 -28 13 -8 0 -14 2 -14 5 0 6
164 164 171 165 3 0 28 -28 55 -61z m-422 -56 c4 -5 11 -8 14 -8 4 0 26 -13
48 -28 23 -16 51 -29 62 -30 20 -1 24 -23 6 -35 -23 -17 -64 -83 -58 -94 4 -6
3 -8 -3 -5 -6 4 -27 -13 -48 -38 -20 -25 -41 -43 -46 -40 -5 4 -6 0 -3 -8 3
-8 -3 -20 -12 -28 -16 -12 -17 -12 -9 1 5 10 1 8 -13 -4 -12 -10 -19 -23 -16
-27 3 -5 -7 -4 -23 2 -19 7 -29 7 -31 0 -4 -12 -52 16 -52 31 0 5 7 2 16 -6
19 -19 31 -20 31 -3 0 11 116 220 134 240 4 5 18 1 32 -8 15 -9 31 -14 37 -10
19 11 32 -5 18 -23 -8 -11 -5 -10 10 3 22 18 22 20 6 32 -9 7 -21 10 -25 7
-11 -6 -89 34 -89 45 0 5 -3 16 -6 25 -6 16 7 22 20 9z"/>
<path d="M499 963 c-11 -15 -11 -16 1 -5 19 17 40 15 62 -5 10 -9 18 -11 18
-5 0 13 -32 32 -53 32 -8 0 -21 -8 -28 -17z"/>
<path d="M637 956 c-4 -9 -2 -18 3 -21 6 -4 10 -18 10 -32 0 -26 -47 -78 -85
-94 -15 -6 -16 -8 -4 -8 9 -1 28 8 41 19 14 10 28 17 32 13 8 -8 36 61 36 90
0 31 -25 55 -33 33z"/>
<path d="M2675 988 c-33 -59 -46 -74 -69 -78 -16 -3 -33 -12 -38 -20 -30 -52
-138 -315 -134 -326 4 -11 115 -74 130 -74 8 0 208 284 213 301 3 10 -3 28
-12 43 -15 22 -15 28 -2 46 7 11 16 17 19 14 3 -3 6 1 5 8 -1 31 4 48 13 48 7
0 7 -8 -1 -22 -17 -33 4 -9 29 33 l22 37 -36 17 c-19 9 -37 15 -38 13 -2 -1
-9 -14 -15 -26 -16 -30 -5 -42 13 -16 22 30 31 8 10 -23 -10 -15 -27 -45 -36
-67 -15 -32 -21 -36 -33 -26 -8 7 -22 10 -30 6 -24 -9 -18 11 29 94 35 63 41
80 29 84 -25 10 -27 8 -68 -66z m-100 -131 c-21 -51 -18 -59 6 -14 32 61 31
42 -2 -30 -89 -192 -104 -221 -111 -210 -6 9 -8 8 -8 -2 0 -8 -2 -12 -5 -9 -3
3 -2 13 1 22 5 14 9 15 16 4 7 -9 8 -7 5 10 -3 12 -1 19 4 16 12 -7 42 64 35
82 -3 9 0 11 12 7 14 -6 15 -4 4 9 -10 12 -7 28 19 87 32 72 52 96 24 28z m80
23 c-6 -9 6 -14 30 -11 6 0 21 -9 35 -20 14 -11 19 -18 11 -14 -10 6 -11 2 -7
-13 5 -15 -16 -56 -85 -161 -51 -78 -95 -138 -98 -134 -3 5 -12 8 -18 9 -7 1
-18 2 -23 3 -6 0 5 30 24 64 20 35 33 67 29 70 -3 4 -1 7 6 7 7 0 9 4 6 10 -9
14 14 52 27 44 7 -4 8 -3 4 4 -4 6 5 34 19 62 20 39 23 55 15 65 -8 10 -7 14
7 18 10 3 19 5 21 6 2 0 0 -3 -3 -9z"/>
<path d="M2641 823 c-10 -23 -10 -25 2 -14 9 7 26 9 41 5 34 -8 35 13 0 26
-14 6 -27 10 -28 10 -2 0 -8 -12 -15 -27z"/>
<path d="M835 918 c-51 -19 -82 -46 -104 -91 -26 -54 -27 -97 -1 -147 27 -53
72 -83 135 -88 174 -14 267 210 126 304 -43 28 -113 38 -156 22z m125 -30 c18
-13 41 -34 51 -48 21 -29 38 -107 21 -96 -6 3 -13 -7 -17 -25 -10 -45 -60 -97
-106 -109 -105 -29 -211 73 -184 177 25 101 154 156 235 101z"/>
<path d="M1312 857 c-12 -13 -22 -27 -22 -33 0 -5 11 5 24 21 l24 30 26 -24
26 -25 -28 -30 c-55 -59 -95 -126 -83 -140 13 -15 6 -42 -17 -68 -8 -10 -11
-18 -6 -18 5 0 -33 -40 -83 -90 -51 -50 -97 -90 -103 -90 -17 0 -25 5 -22 13
1 4 -10 7 -25 7 -14 0 -23 3 -20 6 11 11 -14 46 -29 40 -10 -4 -14 3 -14 24 0
20 17 51 58 102 32 40 65 83 74 96 15 21 17 22 32 6 9 -9 20 -13 24 -10 3 4 0
11 -7 15 -22 14 -8 45 24 53 l30 7 -30 -2 c-23 -2 -43 -18 -99 -82 -141 -163
-153 -195 -93 -252 42 -42 79 -55 114 -42 14 5 55 40 89 77 l63 67 1 -35 c0
-53 -11 -81 -34 -90 -18 -6 -28 -31 -55 -131 -19 -68 -35 -134 -37 -146 -3
-30 39 -53 111 -60 l54 -6 15 54 c8 30 26 94 40 144 25 87 25 91 8 105 -18 14
-18 17 0 78 11 35 17 69 15 76 -3 7 -26 18 -51 25 l-47 11 27 35 c19 26 25 41
20 61 -5 20 3 40 40 95 29 44 51 68 60 65 7 -3 16 -1 19 3 5 9 -69 81 -83 81
-5 0 -18 -10 -30 -23z m13 -352 c-1 -40 -31 -145 -41 -145 -23 0 -24 18 -7 89
13 52 22 71 33 69 8 -2 15 -8 15 -13z m-25 -170 c0 -5 -15 -66 -34 -135 -31
-119 -34 -125 -57 -122 -13 2 -28 7 -33 12 -4 4 6 59 23 121 18 63 30 123 27
135 -5 20 -4 21 34 10 22 -5 40 -15 40 -21z m5 -126 c-36 -129 -36 -131 -41
-127 -2 3 5 36 15 74 11 38 24 89 31 113 6 23 13 41 16 38 3 -2 -7 -47 -21
-98z m-136 -8 c-8 -38 -16 -56 -21 -48 -6 12 22 120 30 112 2 -2 -2 -30 -9
-64z"/>
<path d="M1235 778 c-22 -23 -31 -36 -20 -28 35 26 75 70 62 70 -2 0 -21 -19
-42 -42z"/>
<path d="M1460 759 c-63 -25 -118 -125 -103 -188 12 -52 42 -97 77 -116 42
-23 44 -31 14 -62 -18 -19 -22 -36 -23 -81 0 -71 31 -123 91 -152 52 -26 89
-25 144 3 76 38 109 132 75 213 l-14 35 28 -20 28 -20 21 22 22 21 27 -25 c29
-27 63 -44 63 -31 0 4 -21 22 -47 39 -43 30 -48 31 -64 17 -16 -14 -20 -14
-46 3 -40 25 -50 41 -51 81 -2 55 -12 51 -12 -5 0 -48 -1 -50 -25 -45 -14 2
-25 6 -25 8 0 1 11 24 25 50 29 55 33 120 9 171 -20 41 -78 88 -99 79 -9 -3
-13 -2 -10 4 8 13 -72 12 -105 -1z m137 -49 c46 -27 52 -46 44 -119 -7 -55
-12 -68 -40 -93 -83 -74 -215 5 -193 117 3 21 2 26 -7 20 -8 -4 -7 5 4 24 34
66 127 91 192 51z m51 -278 c13 -13 28 -20 35 -16 7 4 9 4 5 -1 -5 -5 3 -22
15 -39 35 -46 39 -73 17 -117 -31 -59 -77 -89 -138 -89 -47 0 -55 4 -98 44
-42 41 -45 47 -39 78 4 18 11 38 15 43 5 6 8 13 7 17 -1 4 17 23 41 43 34 30
49 36 73 33 25 -4 30 -2 26 13 -6 23 13 19 41 -9z"/>
<path d="M1505 641 c-4 -7 3 -11 16 -11 12 0 31 -8 42 -17 19 -17 20 -17 8 5
-6 12 -16 22 -21 22 -4 0 -15 3 -23 6 -8 3 -18 1 -22 -5z"/>
<path d="M1807 715 c-4 -9 35 -31 73 -40 41 -11 60 -19 60 -26 0 -5 7 -5 17
-2 10 4 14 2 10 -4 -9 -14 18 -24 40 -16 10 4 14 2 10 -4 -5 -7 0 -9 13 -6 19
5 19 23 -1 23 -5 0 -57 20 -114 44 -72 30 -105 40 -108 31z"/>
<path d="M1761 615 l-32 -70 33 -25 c18 -14 42 -34 54 -45 12 -11 27 -21 33
-23 7 -1 37 -21 66 -43 32 -24 59 -38 66 -33 9 5 10 2 6 -10 -4 -10 -7 -22 -7
-27 0 -5 -7 -9 -16 -9 -8 0 -12 -5 -9 -11 4 -6 -7 -24 -24 -41 -17 -17 -30
-32 -29 -33 31 -29 295 -205 307 -205 32 0 98 87 87 115 -8 23 -260 219 -318
248 -29 15 -84 48 -123 73 -59 39 -65 45 -38 40 41 -7 176 -73 273 -133 321
-199 564 -346 580 -350 19 -5 32 18 111 202 22 50 44 98 49 108 15 26 3 38
-35 35 -32 -2 -40 -18 -9 -18 8 0 14 -6 14 -14 0 -34 -119 -286 -135 -286 -6
0 -36 15 -66 33 -132 81 -284 179 -310 201 -49 42 -270 177 -281 174 -6 -2 14
-19 45 -36 31 -18 57 -35 57 -38 0 -3 -27 9 -60 28 -33 18 -60 37 -60 42 0 5
9 24 21 42 11 19 18 37 16 41 -3 5 -55 31 -116 58 -61 27 -112 56 -114 65 -2
8 -18 -16 -36 -55z m237 -72 c14 -6 15 -13 2 -33 -7 -12 -24 -8 -101 28 -51
23 -94 40 -96 39 -2 -2 37 -23 87 -46 49 -24 90 -47 90 -52 0 -13 -1 -13 -110
36 -55 25 -105 45 -110 45 -14 0 -13 4 11 44 l20 35 97 -46 c53 -24 103 -47
110 -50z m129 -268 c62 -47 113 -88 113 -92 0 -3 -8 1 -18 10 -10 10 -23 17
-28 17 -5 0 13 -20 40 -43 30 -26 47 -48 42 -55 -5 -9 -14 -7 -34 5 -25 16
-26 16 -14 1 9 -11 10 -23 5 -33 -8 -14 -31 -1 -143 79 -122 87 -150 104 -150
92 0 -3 61 -49 135 -102 74 -54 133 -100 130 -102 -2 -2 -67 40 -145 93 l-141
97 19 22 c10 11 29 38 41 59 13 20 25 37 28 37 4 0 57 -38 120 -85z"/>
<path d="M2050 316 c0 -9 131 -108 136 -103 3 2 -27 28 -65 56 -39 28 -71 49
-71 47z"/>
<path d="M2040 260 c42 -37 170 -132 170 -125 0 2 -46 38 -102 80 -57 42 -87
62 -68 45z"/>
<path d="M1170 640 c0 -5 5 -10 10 -10 6 0 19 -9 31 -21 11 -11 23 -18 26 -15
9 8 -17 36 -33 36 -8 0 -14 5 -14 10 0 6 -4 10 -10 10 -5 0 -10 -4 -10 -10z"/>
<path d="M2083 618 c15 -5 25 -13 22 -18 -4 -7 82 -37 97 -33 3 2 39 -9 79
-22 40 -14 80 -25 90 -25 10 0 39 -11 65 -25 26 -14 59 -25 74 -25 14 0 60
-11 100 -25 40 -14 78 -25 84 -24 6 0 -131 47 -304 105 -173 57 -319 103 -325
103 -5 0 2 -5 18 -11z"/>
<path d="M1805 344 c39 -29 63 -52 73 -70 10 -18 12 -18 36 5 14 14 26 29 26
34 0 6 -11 0 -25 -13 -20 -18 -28 -21 -37 -12 -9 9 -8 12 4 12 9 0 19 7 22 16
10 26 7 28 -13 10 -21 -19 -45 -12 -71 18 -7 9 -18 16 -24 16 -6 0 -2 -7 9
-16z"/>
</g>
</svg>
